<svg xmlns="http://www.w3.org/2000/svg" width="30" height="25" viewBox="0 0 30 25">
    <g fill="#72777B" fill-rule="evenodd">
        <path d="M8.32 7.111h14.36c.729 0 1.32.591 1.32 1.32V18.68A1.32 1.32 0 0 1 22.68 20H8.32A1.32 1.32 0 0 1 7 18.68V8.431c0-.729.591-1.32 1.32-1.32zm.022 3.556v.889h14.763v-.89H8.342zm2.684 2.222v3.555h.895V12.89h-.895zm8.053 0v3.555h.895V12.89h-.895z"/>
        <path d="M20.868 8.444V5.32A1.32 1.32 0 0 0 19.548 4h-8.096a1.32 1.32 0 0 0-1.32 1.32v3.124h.894V4.89h8.948v3.555h.894z"/>
    </g>
</svg>
