<svg width="25" height="24" viewBox="0 0 25 24" fill="none" xmlns="http://www.w3.org/2000/svg">
<path d="M14.3922 22.4999C15.0944 22.4999 15.7067 21.8876 15.7067 21.1854V18.1156H16.5844C17.1111 18.1156 17.4621 17.7645 17.4621 17.2379V8.47003H6.93817V17.238C6.93817 17.7646 7.28925 18.1157 7.81586 18.1157H8.69361V21.1855C8.69361 21.8877 9.30579 22.5 10.0081 22.5C10.7102 22.5 11.3224 21.8877 11.3224 21.1855V18.1157H13.0778V21.1855C13.0778 21.8876 13.6901 22.4999 14.3922 22.4999Z" fill="#1D2129"/>
<path d="M19.6543 17.238C20.3564 17.238 20.9686 16.6258 20.9686 15.9235V9.78393C20.9686 9.0855 20.3564 8.47003 19.6543 8.47003C18.9521 8.47003 18.3398 9.0855 18.3398 9.78393V15.9235C18.3398 16.6257 18.952 17.238 19.6543 17.238Z" fill="#1D2129"/>
<path d="M4.74602 17.238C5.44824 17.238 6.06049 16.6258 6.06049 15.9235V9.78393C6.06049 9.0855 5.44831 8.47003 4.74602 8.47003C4.04387 8.47003 3.4317 9.0855 3.4317 9.78393V15.9235C3.4317 16.6257 4.04387 17.238 4.74602 17.238Z" fill="#1D2129"/>
<path d="M16.4088 1.63244C16.2333 1.45585 15.9721 1.45585 15.7966 1.63244L14.6194 2.8057L14.5651 2.85994C13.8671 2.51041 13.0845 2.33585 12.213 2.33417C12.2087 2.33417 12.2045 2.33403 12.2002 2.33403H12.2001C12.1957 2.33403 12.1916 2.33417 12.1872 2.33417C11.3157 2.33585 10.5331 2.51041 9.8352 2.85994L9.78075 2.8057L8.60364 1.63244C8.42803 1.45585 8.16693 1.45585 7.99146 1.63244C7.81586 1.80805 7.81586 2.06866 7.99146 2.24412L9.13018 3.38305C8.76327 3.62803 8.43055 3.92781 8.14121 4.27069C7.44853 5.09175 7.0067 6.16032 6.94595 7.3181C6.94539 7.33015 6.9442 7.34206 6.94364 7.35411C6.93992 7.43295 6.93817 7.5122 6.93817 7.59174H17.4621C17.4621 7.5122 17.4602 7.43295 17.4566 7.35411C17.456 7.34206 17.4548 7.33015 17.4541 7.3181C17.3935 6.16032 16.9516 5.09168 16.2589 4.27076C15.9697 3.92788 15.6368 3.6281 15.2699 3.38312L16.4088 2.24419C16.5844 2.06866 16.5844 1.80805 16.4088 1.63244ZM10.0064 6.05927C9.64327 6.05927 9.34888 5.76489 9.34888 5.40176C9.34888 5.03863 9.64327 4.74425 10.0064 4.74425C10.3695 4.74425 10.6639 5.03863 10.6639 5.40176C10.6639 5.76489 10.3695 6.05927 10.0064 6.05927ZM14.3938 6.05927C14.0307 6.05927 13.7363 5.76489 13.7363 5.40176C13.7363 5.03863 14.0307 4.74425 14.3938 4.74425C14.757 4.74425 15.0514 5.03863 15.0514 5.40176C15.0514 5.76489 14.757 6.05927 14.3938 6.05927Z" fill="#1D2129"/>
</svg>
