<svg width="25" height="24" viewBox="0 0 25 24" fill="none" xmlns="http://www.w3.org/2000/svg">
<path fill-rule="evenodd" clip-rule="evenodd" d="M15.4198 4.8586C16.1765 3.95096 16.5561 2.97036 16.5561 1.92012V1.92011C16.5561 1.78081 16.5497 1.6404 16.5343 1.5C16.0072 1.52764 15.4468 1.68905 14.8543 1.98091C14.2605 2.2772 13.7709 2.64862 13.3859 3.09531C12.6148 3.97754 12.1806 5.05654 12.1806 6.06477C12.1806 6.20412 12.1894 6.33673 12.2047 6.46272C13.4023 6.56111 14.5067 5.93761 15.4198 4.8586ZM19.4479 19.8954C19.8788 19.2745 20.2507 18.5992 20.5649 17.8655C20.6945 17.5544 20.8163 17.2303 20.9317 16.892C20.3995 16.6664 19.9212 16.3489 19.4928 15.9379C18.5477 15.0526 18.0668 13.9376 18.0527 12.5976C18.0373 10.8774 18.8106 9.53638 20.3738 8.57896C19.5005 7.32418 18.1873 6.6277 16.4394 6.48512C15.7943 6.42977 15.0069 6.57028 14.0739 6.90964C13.0874 7.27557 12.5054 7.45912 12.3337 7.45912C12.104 7.45912 11.5801 7.30215 10.7642 6.9926C9.94605 6.68409 9.28765 6.52711 8.78558 6.52711C7.868 6.54254 7.01596 6.78364 6.22739 7.25678C5.43883 7.72991 4.80877 8.37441 4.33517 9.19144C3.73256 10.2086 3.4317 11.4224 3.4317 12.8298C3.4317 14.0584 3.65484 15.3274 4.09997 16.6379C4.51561 17.8512 5.04615 18.9154 5.69147 19.8332C6.29292 20.6926 6.795 21.2993 7.19639 21.6531C7.8253 22.2442 8.45535 22.5255 9.08746 22.4983C9.5031 22.484 10.0467 22.3402 10.7215 22.0641C11.3953 21.7892 12.0252 21.6531 12.6126 21.6531C13.1726 21.6531 13.7851 21.7892 14.4516 22.0641C15.1159 22.3402 15.6866 22.4763 16.1598 22.4763C16.819 22.4607 17.4345 22.1872 18.0091 21.6531C18.3797 21.3278 18.8606 20.7419 19.4479 19.8954Z" fill="#1D2129"/>
</svg>
